<svg width="8" height="10" viewBox="0 0 8 10" fill="none" xmlns="http://www.w3.org/2000/svg">
<path d="M2.33532 1.28126C1.54824 1.85025 1.01903 2.57705 0.747684 3.46168C0.476339 4.3463 0.515979 5.22143 0.866604 6.08707C1.21723 6.95271 1.8086 7.63547 2.64073 8.13534C3.47286 8.63521 4.38708 8.85892 5.38338 8.80646C4.65355 8.48278 4.02124 8.04465 3.48646 7.49208C2.95169 6.93952 2.54133 6.30977 2.2554 5.60284C1.96946 4.8959 1.83123 4.17127 1.8407 3.42894C1.85017 2.6866 2.01518 1.97104 2.33532 1.28126ZM3.33698 0.127638C3.42828 0.0958034 3.51669 0.0698864 3.60221 0.0498879C3.68772 0.0298904 3.77765 0.0132613 3.872 1.60891e-06C3.15738 0.737832 2.70407 1.59225 2.51208 2.56325C2.32009 3.53425 2.41285 4.48527 2.79037 5.4163C3.16789 6.34734 3.77298 7.11972 4.60564 7.73345C5.4383 8.34718 6.38627 8.71301 7.44955 8.83093C7.3695 8.87848 7.29002 8.92092 7.21112 8.95825C7.13222 8.99558 7.04712 9.03016 6.95581 9.06199C6.28959 9.29429 5.61623 9.39539 4.93571 9.3653C4.2552 9.33521 3.61668 9.19476 3.02014 8.94392C2.42361 8.69309 1.88923 8.33997 1.417 7.88455C0.943701 7.4295 0.581933 6.89307 0.331697 6.27528C0.0814616 5.65749 -0.027151 5.03261 0.00585748 4.40064C0.0388661 3.76868 0.190187 3.17609 0.459822 2.62287C0.729456 2.06965 1.1101 1.57345 1.60176 1.13428C2.09343 0.695107 2.67183 0.35956 3.33698 0.127638Z" fill="white"/>
</svg>
