<svg width="13" height="13" viewBox="0 0 13 13" fill="none" xmlns="http://www.w3.org/2000/svg">
<path d="M6.5 2.16699C8.59397 2.16699 10.2918 3.86408 10.292 5.95801C10.292 8.49795 7.86866 10.0924 6.89648 10.6299C6.64719 10.7677 6.35281 10.7677 6.10352 10.6299C5.13134 10.0924 2.70801 8.49795 2.70801 5.95801C2.70818 3.86408 4.40603 2.16699 6.5 2.16699ZM6.5 4.33301C5.60265 4.33301 4.87518 5.06069 4.875 5.95801C4.875 6.85547 5.60254 7.58301 6.5 7.58301C7.39746 7.58301 8.125 6.85547 8.125 5.95801C8.12482 5.06069 7.39735 4.33301 6.5 4.33301Z" fill="currentColor"/>
</svg>
